# Export of WhiteBkg
# from Aaro4130 OBJ Exporter v2.0
mtllib Warning.mtl
g 39_Exclamasion
v 0.1022876 0.609919 -0.02611027
v -0.03701213 0.609919 -0.02611027
v -0.02065059 0.3094347 -0.02611027
v 0.08592606 0.3094347 -0.02611027
v 0.1022878 0.6099188 0.02611027
v 0.08592589 0.3094347 0.02611027
v -0.02065059 0.3094347 0.02611027
v -0.03701222 0.609919 0.02611027
v 0.1022876 0.609919 -0.02611027
v 0.08592606 0.3094347 -0.02611027
v 0.08592589 0.3094347 0.02611027
v 0.1022878 0.6099188 0.02611027
v -0.02065059 0.3094347 -0.02611027
v -0.03701213 0.609919 -0.02611027
v -0.03701222 0.609919 0.02611027
v -0.02065059 0.3094347 0.02611027
v 0.1022878 0.6099188 0.02611027
v -0.03701222 0.609919 0.02611027
v -0.03701213 0.609919 -0.02611027
v 0.1022876 0.609919 -0.02611027
v -0.02065059 0.2747373 -0.02611027
v -0.02065059 0.1890544 -0.02611027
v 0.08592606 0.1890544 -0.02611027
v 0.08592606 0.2747373 -0.02611027
v 0.08592589 0.2747371 0.02611027
v 0.08592589 0.1890543 0.02611027
v -0.02065059 0.1890544 0.02611027
v -0.02065059 0.2747373 0.02611027
v 0.08592606 0.2747373 -0.02611027
v 0.08592606 0.1890544 -0.02611027
v 0.08592589 0.1890543 0.02611027
v 0.08592589 0.2747371 0.02611027
v -0.02065059 0.2747373 0.02611027
v -0.02065059 0.1890544 0.02611027
v -0.02065059 0.1890544 -0.02611027
v -0.02065059 0.2747373 -0.02611027
v 0.08592606 0.1890544 -0.02611027
v -0.02065059 0.1890544 -0.02611027
v -0.02065059 0.1890544 0.02611027
v 0.08592589 0.1890543 0.02611027
v 0.08592606 0.3094347 -0.02611027
v -0.02065059 0.3094347 -0.02611027
v -0.02065059 0.3094347 0.02611027
v 0.08592589 0.3094347 0.02611027
v -0.02065059 0.2747373 0.02611027
v -0.02065059 0.2747373 -0.02611027
v 0.08592606 0.2747373 -0.02611027
v 0.08592589 0.2747371 0.02611027
vn 0 0 -0.5773502
vn 0 0 -0.5773502
vn 0 0 -0.5773502
vn 0 0 -0.5773502
vn 0 0 0.5773502
vn 0 0 0.5773502
vn 0 0 0.5773502
vn 0 0 0.5773502
vn 0.5764964 -0.03139088 0
vn 0.5764964 -0.03139088 0
vn 0.5764964 -0.03139088 0
vn 0.5764964 -0.03139088 0
vn -0.5764964 -0.03139061 0
vn -0.5764964 -0.03139061 0
vn -0.5764964 -0.03139061 0
vn -0.5764964 -0.03139061 0
vn 0 0.5773502 0
vn 0 0.5773502 0
vn 0 0.5773502 0
vn 0 0.5773502 0
vn 0 0 -0.5773502
vn 0 0 -0.5773502
vn 0 0 -0.5773502
vn 0 0 -0.5773502
vn 0 0 0.5773502
vn 0 0 0.5773502
vn 0 0 0.5773502
vn 0 0 0.5773502
vn 0.5773504 0 0
vn 0.5773504 0 0
vn 0.5773504 0 0
vn 0.5773504 0 0
vn -0.5773504 0 0
vn -0.5773504 0 0
vn -0.5773504 0 0
vn -0.5773504 0 0
vn 0 -0.5773502 0
vn 0 -0.5773502 0
vn 0 -0.5773502 0
vn 0 -0.5773502 0
vn 0 -0.5773502 0
vn 0 -0.5773502 0
vn 0 -0.5773502 0
vn 0 -0.5773502 0
vn 0 0.5773502 0
vn 0 0.5773502 0
vn 0 0.5773502 0
vn 0 0.5773502 0
vt 0.5616082 0.02653459
vt 0.3154142 0.02653459
vt 0.3443312 0.6372688
vt 0.5326915 0.6372688
vt 0.2692677 0.6372691
vt 0.2403507 0.02653459
vt 0.05199074 0.02653459
vt 0.02307327 0.6372688
vt 0.6077548 0.02653459
vt 0.6077548 0.6379476
vt 0.7000477 0.6379476
vt 0.7000477 0.0265351
vt 0.7461942 0.02653459
vt 0.7461943 0.6379473
vt 0.8384872 0.6379473
vt 0.8384872 0.02653459
vt 0.5105258 0.9734654
vt 0.5105258 0.6903383
vt 0.4182329 0.6903384
vt 0.4182329 0.9734651
vt 0.1745065 0.6903383
vt 0.02307327 0.6903383
vt 0.02307327 0.9069552
vt 0.1745065 0.9069552
vt 0.2206531 0.9069549
vt 0.3720863 0.9069549
vt 0.3720863 0.6903383
vt 0.2206531 0.6903383
vt 0.9769267 0.9671483
vt 0.9769267 0.7930624
vt 0.8846338 0.7930622
vt 0.8846338 0.9671481
vt 0.8846338 0.5659069
vt 0.8846338 0.739993
vt 0.9769267 0.739993
vt 0.9769267 0.5659069
vt 0.6077548 0.6910167
vt 0.6077548 0.9076337
vt 0.7000478 0.9076337
vt 0.7000478 0.691017
vt 0.8846338 0.02653459
vt 0.8846338 0.2431516
vt 0.9769268 0.2431515
vt 0.9769267 0.02653491
vt 0.9769267 0.2962207
vt 0.8846338 0.2962207
vt 0.8846338 0.5128377
vt 0.9769267 0.5128374
usemtl #fc5131-unlit
f 3/3/3 2/2/2 1/1/1
f 4/4/4 3/3/3 1/1/1
f 7/7/7 6/6/6 5/5/5
f 8/8/8 7/7/7 5/5/5
f 11/11/11 10/10/10 9/9/9
f 12/12/12 11/11/11 9/9/9
f 15/15/15 14/14/14 13/13/13
f 16/16/16 15/15/15 13/13/13
f 19/19/19 18/18/18 17/17/17
f 20/20/20 19/19/19 17/17/17
f 23/23/23 22/22/22 21/21/21
f 24/24/24 23/23/23 21/21/21
f 27/27/27 26/26/26 25/25/25
f 28/28/28 27/27/27 25/25/25
f 31/31/31 30/30/30 29/29/29
f 32/32/32 31/31/31 29/29/29
f 35/35/35 34/34/34 33/33/33
f 36/36/36 35/35/35 33/33/33
f 39/39/39 38/38/38 37/37/37
f 40/40/40 39/39/39 37/37/37
f 43/43/43 42/42/42 41/41/41
f 44/44/44 43/43/43 41/41/41
f 47/47/47 46/46/46 45/45/45
f 48/48/48 47/47/47 45/45/45
g 96_Triangle
v 0.03263791 0.8442281 -0.05908528
v 0.03263791 0.8442281 0.05908528
v 0.4767263 0.0898661 0.05908528
v 0.4767263 0.0898661 -0.05908528
v 0.03263791 0.8442281 -0.05908528
v -0.4114505 0.08986673 -0.05908528
v -0.4114505 0.08986673 0.05908528
v 0.03263791 0.8442281 0.05908528
v 0.4767263 0.0898661 0.05908528
v -0.4114505 0.08986673 0.05908528
v -0.4114505 0.08986673 -0.05908528
v 0.4767263 0.0898661 -0.05908528
v 0.03263793 1.003654 -0.05908528
v 0.03263793 1.003654 0.05908528
v -0.5578397 0.0006252825 0.05908528
v -0.5578397 0.0006252825 -0.05908528
v 0.6231155 0.0006244779 0.05908528
v 0.6231155 0.0006244779 -0.05908528
v -0.5578397 0.0006252825 -0.05908528
v -0.5578397 0.0006252825 0.05908528
v 0.03263793 1.003654 -0.05908528
v 0.6231155 0.0006244779 -0.05908528
v 0.6231155 0.0006244779 0.05908528
v 0.03263793 1.003654 0.05908528
v -0.4114505 0.08986673 0.05908528
v -0.5578397 0.0006252825 0.05908528
v 0.03263793 1.003654 0.05908528
v 0.03263791 0.8442281 0.05908528
v 0.6231155 0.0006244779 0.05908528
v 0.4767263 0.0898661 0.05908528
v 0.03263791 0.8442281 -0.05908528
v 0.4767263 0.0898661 -0.05908528
v 0.6231155 0.0006244779 -0.05908528
v 0.03263793 1.003654 -0.05908528
v -0.5578397 0.0006252825 -0.05908528
v -0.4114505 0.08986673 -0.05908528
v -0.5578397 0.0006252825 -0.05908528
v 0.6231155 0.0006244779 -0.05908528
v 0.4767263 0.0898661 -0.05908528
v -0.4114505 0.08986673 -0.05908528
vn -0.4975383 -0.2928976 0
vn -0.4975383 -0.2928976 0
vn -0.4975383 -0.2928976 0
vn -0.4975383 -0.2928976 0
vn 0.4975382 -0.2928979 0
vn 0.4975382 -0.2928979 0
vn 0.4975382 -0.2928979 0
vn 0.4975382 -0.2928979 0
vn 0 0.5773502 0
vn 0 0.5773502 0
vn 0 0.5773502 0
vn 0 0.5773502 0
vn -0.4975382 0.2928979 0
vn -0.4975382 0.2928979 0
vn -0.4975382 0.2928979 0
vn -0.4975382 0.2928979 0
vn 0 -0.5773502 0
vn 0 -0.5773502 0
vn 0 -0.5773502 0
vn 0 -0.5773502 0
vn 0.4975383 0.2928976 0
vn 0.4975383 0.2928976 0
vn 0.4975383 0.2928976 0
vn 0.4975383 0.2928976 0
vn 0 0 0.5773502
vn 0 0 0.5773502
vn 0 0 0.5773502
vn 0 0 0.5773502
vn 0 0 0.5773502
vn 0 0 0.5773502
vn 0 0 -0.5773502
vn 0 0 -0.5773502
vn 0 0 -0.5773502
vn 0 0 -0.5773502
vn 0 0 -0.5773502
vn 0 0 -0.5773502
vn 0 0 -0.5773502
vn 0 0 -0.5773502
vn 0 0 -0.5773502
vn 0 0 -0.5773502
vt 0.2770313 0.8708845
vt 0.2287682 0.8708845
vt 0.2287681 0.5153862
vt 0.2770313 0.5153862
vt 0.3492883 0.5153862
vt 0.3492883 0.8708843
vt 0.3010252 0.8708843
vt 0.3010252 0.5153862
vt 0.2047742 0.5153862
vt 0.2047742 0.8760846
vt 0.1565111 0.8760846
vt 0.156511 0.5153862
vt 0.1325172 0.5153862
vt 0.08425402 0.5153862
vt 0.08425397 0.9880706
vt 0.1325171 0.9880706
vt 0.9275611 0.01192914
vt 0.8792979 0.01192914
vt 0.879298 0.491528
vt 0.9275612 0.491528
vt 0.01199695 0.5153862
vt 0.01199694 0.9880708
vt 0.06026009 0.9880708
vt 0.06026009 0.5153862
vt 0.3852055 0.4320777
vt 0.4216535 0.4915279
vt 0.01199694 0.2517287
vt 0.07710966 0.2517287
vt 0.4216535 0.01192914
vt 0.3852056 0.0713794
vt 0.5107602 0.2517283
vt 0.8188561 0.4320776
vt 0.8553041 0.4915279
vt 0.4456474 0.2517282
vt 0.855304 0.01192914
vt 0.8188561 0.07137936
vt 0.9880031 0.4915279
vt 0.9880031 0.01192914
vt 0.9515551 0.0713794
vt 0.9515551 0.4320777
usemtl #fc5131-unlit
f 51/51/51 50/50/50 49/49/49
f 52/52/52 51/51/51 49/49/49
f 55/55/55 54/54/54 53/53/53
f 56/56/56 55/55/55 53/53/53
f 59/59/59 58/58/58 57/57/57
f 60/60/60 59/59/59 57/57/57
f 63/63/63 62/62/62 61/61/61
f 64/64/64 63/63/63 61/61/61
f 67/67/67 66/66/66 65/65/65
f 68/68/68 67/67/67 65/65/65
f 71/71/71 70/70/70 69/69/69
f 72/72/72 71/71/71 69/69/69
f 75/75/75 74/74/74 73/73/73
f 76/76/76 75/75/75 73/73/73
f 74/74/74 77/77/77 73/73/73
f 77/77/77 78/78/78 73/73/73
f 75/75/75 76/76/76 78/78/78
f 77/77/77 75/75/75 78/78/78
f 81/81/81 80/80/80 79/79/79
f 82/82/82 81/81/81 79/79/79
f 83/83/83 82/82/82 79/79/79
f 84/84/84 83/83/83 79/79/79
f 87/87/87 86/86/86 85/85/85
f 88/88/88 87/87/87 85/85/85
